<?xml version="1.0" encoding="utf-8"?>
<!-- Generator: Adobe Illustrator 19.0.0, SVG Export Plug-In . SVG Version: 6.00 Build 0)  -->
<svg version="1.1" id="Capa_1" xmlns="http://www.w3.org/2000/svg" xmlns:xlink="http://www.w3.org/1999/xlink" x="0px" y="0px"
	 viewBox="-110 150 512 512" style="enable-background:new -110 150 512 512;" xml:space="preserve">
<style type="text/css">
	.st0{fill:#FFFFFF;}
</style>
<g>
	<g>
		<g>
			<path class="st0" d="M86.7,539.5c-1.1,0-2.1-0.3-3-0.7c-2.1-1.1-3.5-3.3-3.5-5.7V279c0-2.4,1.3-4.6,3.4-5.7c0.9-0.5,2-0.7,3-0.7
				c1.3,0,2.6,0.4,3.7,1.1l186.3,127c1.8,1.2,2.8,3.2,2.8,5.3c0,2.1-1.1,4.1-2.8,5.3l-186.3,127C89.3,539.1,88,539.5,86.7,539.5z
				 M93.2,520.8L261.5,406L93.2,291.2V520.8z"/>
		</g>
		<g>
			<path class="st0" d="M146,658C7,658-106,545-106,406S7,154,146,154s252,113,252,252S285,658,146,658z M146,166.9
				C14.2,166.9-93.1,274.2-93.1,406c0,131.8,107.2,239.1,239.1,239.1c131.8,0,239.1-107.2,239.1-239.1
				C385.1,274.2,277.8,166.9,146,166.9z"/>
		</g>
	</g>
</g>
</svg>
